# xmcd CD database file
#
# Track frame offsets:
#	150
#	14700
#	35063
#	53187
#	71366
#	85593
#	103840
#	117820
#	133785
#	152379
#	166643
#	182928
#	198297
#	210187
#	225748
#	242130
#	257758
#	275163
#	293516
#
# Disc length: 4146 seconds
#
# Revision: 1
# Processed by: cddbd v1.5.2PL0 Copyright (c) Steve Scherf et al.
# Submitted via: CDex 1.79
#
DISCID=06103013
DTITLE=HOBOES and friends - Southern Sessions
DYEAR=2015
DGENRE=Blues
TTITLE0=Fly around my pretty little miss
TTITLE1=When you and I were young Maggie
TTITLE2=Banks of the Ohio
TTITLE3=The train carrying Jimmie Rodgers home
TTITLE4=April bride
TTITLE5=Early morning rain
TTITLE6=Wish for yesterday
TTITLE7=I'll fly away
TTITLE8=Peach picking time in Georgia
TTITLE9=Make me a pallet on your floor
TTITLE10=Down South
TTITLE11=Heaven with you
TTITLE12=The one rose
TTITLE13=The trail of the lonesome cowboy
TTITLE14=The water is wide - La mer est immense
TTITLE15=Meet me in New Orleans
TTITLE16=Don't think twice, it's alright - N'y pense plus tout est bien
TTITLE17=Mama's Opry
TTITLE18=In spite of ourselves
EXTD=YEAR: 2015
EXTT0=
EXTT1=
EXTT2=
EXTT3=
EXTT4=
EXTT5=
EXTT6=
EXTT7=
EXTT8=
EXTT9=
EXTT10=
EXTT11=
EXTT12=
EXTT13=
EXTT14=
EXTT15=
EXTT16=
EXTT17=
EXTT18=
PLAYORDER=
